<?xml version="1.0" encoding="UTF-8"?>
<svg width="24px" height="24px" viewBox="0 0 24 24" version="1.1" xmlns="http://www.w3.org/2000/svg">
    <g stroke="none" stroke-width="1" fill="none" fill-rule="evenodd">
        <path d="M18.5,3 L5.5,3 C4.119,3 3,4.119 3,5.5 L3,18.5 C3,19.881 4.119,21 5.5,21 L18.5,21 C19.881,21 21,19.881 21,18.5 L21,5.5 C21,4.119 19.881,3 18.5,3" fill="#00832D"/>
        <path d="M14.2425,11.5 L17.4855,8.257 C17.8795,7.863 18.5115,7.863 18.9065,8.257 C19.3015,8.652 19.3015,9.284 18.9065,9.679 L14.9495,13.636 C14.5545,14.03 13.9225,14.03 13.5285,13.636 L9.5715,9.679 C9.1765,9.284 9.1765,8.652 9.5715,8.257 C9.9665,7.863 10.5985,7.863 10.9925,8.257 L14.2425,11.5 Z" fill="#FFFFFF" transform="translate(14.239100, 10.946500) rotate(-270.000000) translate(-14.239100, -10.946500)"/>
        <path d="M7,8.5 C7,9.328 6.328,10 5.5,10 C4.672,10 4,9.328 4,8.5 C4,7.672 4.672,7 5.5,7 C6.328,7 7,7.672 7,8.5" fill="#FFFFFF"/>
        <path d="M7,12 C7,12.828 6.328,13.5 5.5,13.5 C4.672,13.5 4,12.828 4,12 C4,11.172 4.672,10.5 5.5,10.5 C6.328,10.5 7,11.172 7,12" fill="#FFFFFF"/>
        <path d="M7,15.5 C7,16.328 6.328,17 5.5,17 C4.672,17 4,16.328 4,15.5 C4,14.672 4.672,14 5.5,14 C6.328,14 7,14.672 7,15.5" fill="#FFFFFF"/>
    </g>
</svg> 